<?xml version="1.0" encoding="utf-8"?>
<!-- Generator: Adobe Illustrator 27.8.1, SVG Export Plug-In . SVG Version: 6.00 Build 0)  -->
<svg version="1.1" id="Layer_1" xmlns="http://www.w3.org/2000/svg" xmlns:xlink="http://www.w3.org/1999/xlink" x="0px" y="0px"
	 viewBox="0 0 368 108" style="enable-background:new 0 0 368 108;" xml:space="preserve">
<style type="text/css">
	.st0{fill:#FF6719;}
</style>
<path id="path47-5" class="st0" d="M60.1,6.2c-8-2.7-15.4,3.8-14.2,11.6c0.7,4.7,4.5,8.4,9.2,8.9C61.6,27.4,67,22.4,67,16.2v0
	C67,11.7,64.3,7.6,60.1,6.2L60.1,6.2z M21.2,29.9c-1.8,0-3.6,0.1-5.3,0.5c-1.1,0.3-2.2,0.8-2.9,1.5c-0.9,0.9-1,2.1-0.6,3.2
	c0.4,0.9,1.4,1.6,2.6,2c2.5,0.8,5.3,1,7.9,1.6c0.5,0.1,1,0.2,1.3,0.6c0.3,0.4,0.1,0.9-0.4,1.2c-0.9,0.4-1.9,0.4-2.9,0.4
	c-0.9,0-1.9-0.1-2.6-0.6c-0.5-0.3-0.6-0.9-0.5-1.3h-5.8c0,0.9,0.2,1.8,0.8,2.6c0.5,0.7,1.4,1.1,2.4,1.4c1.5,0.4,3.1,0.6,4.8,0.6
	c2.2,0,4.4,0,6.5-0.5c1.2-0.3,2.5-0.8,3.3-1.6c1.4-1.4,1.1-3.7-0.8-4.8c-0.9-0.5-2.1-0.9-3.2-1.1c-1.7-0.3-3.4-0.6-5.1-0.9
	c-0.6-0.1-1.2-0.2-1.7-0.5c-0.5-0.3-0.6-1,0-1.2c0.7-0.4,1.6-0.4,2.4-0.4c0.9,0,1.8,0.1,2.5,0.5c0.4,0.2,0.6,0.6,0.6,1h5.5
	c0-0.7-0.1-1.4-0.7-2c-0.6-0.8-1.6-1.2-2.7-1.5C24.8,30,23,30,21.2,29.9L21.2,29.9L21.2,29.9z M33,31v13h18v-3H40v-3h10v-2H40v-2h10
	v-3H33z M61.6,30c0,0-4.9,0-7.6,0v14h6v-9l7.8,10H76V31h-6v8.8C70,39.8,61.6,30,61.6,30z M86.5,30c0,0-6.5,9.3-9.7,14h6.3l1.5-2h9.6
	l1.4,2h7l-9.3-14H86.5L86.5,30z M89.6,34l2.9,5h-6.1C86.5,39,89.6,34,89.6,34z M7,48l0.1,8L37,55.9c1.5,0.3,2.4,1.3,2.1,3.6
	L20.7,91.7l6,5.6L55.1,48C55.1,48,7,48,7,48z M62.1,49l25.3,44.2l5.6-5l-16.8-29c-0.3-2,0.5-3,1.9-3.2l27,0.1V49L62.1,49L62.1,49z
	 M55.9,56L31.1,98.4l6.6,3.2l16.5-27.9c0.6-0.5,1.1-0.7,1.7-0.7c0.6,0,1.2,0.2,1.8,0.7l16.5,28l6.8-3.5L55.9,56L55.9,56z"/>
<g>
	<path class="st0" d="M120.4,31.1h7.2v18.6h7.7V31.1h7.2v45.8h-7.2V56.3h-7.7v20.6h-7.2C120.4,76.9,120.4,31.1,120.4,31.1z"/>
	<path class="st0" d="M150.1,74.5c-1.9-2-2.8-4.8-2.8-8.5V42c0-3.7,0.9-6.5,2.8-8.5c1.9-2,4.6-3,8.1-3s6.2,1,8.1,3
		c1.9,2,2.8,4.8,2.8,8.5v24c0,3.7-0.9,6.5-2.8,8.5c-1.9,2-4.6,3-8.1,3S152,76.5,150.1,74.5z M161.9,66.5v-25c0-3-1.2-4.5-3.7-4.5
		s-3.7,1.5-3.7,4.5v25c0,3,1.2,4.5,3.7,4.5S161.9,69.5,161.9,66.5z"/>
	<path class="st0" d="M173.9,31.1h10.3l4.6,32.7h0.1l4.6-32.7h10.3v45.8h-6.8V42.2h-0.1l-5.2,34.6h-6l-5.2-34.6h-0.1v34.6h-6.3
		L173.9,31.1L173.9,31.1z"/>
	<path class="st0" d="M209.1,31.1h19.6v6.5h-12.4v12.1h9.9v6.5h-9.9v14h12.4v6.5h-19.6V31.1z"/>
	<path class="st0" d="M244.7,74.6c-1.8-2-2.7-4.8-2.7-8.5v-2.6h6.8v3.1c0,3,1.2,4.4,3.7,4.4c1.2,0,2.1-0.4,2.8-1.1s0.9-1.9,0.9-3.5
		c0-1.9-0.4-3.6-1.3-5.1c-0.9-1.5-2.5-3.2-4.8-5.3c-3-2.6-5-5-6.2-7.1c-1.2-2.1-1.8-4.5-1.8-7.2c0-3.6,0.9-6.4,2.7-8.4
		c1.8-2,4.5-3,8-3s6,1,7.8,3c1.8,2,2.6,4.8,2.6,8.5v1.9h-6.8v-2.3c0-1.6-0.3-2.7-0.9-3.4c-0.6-0.7-1.5-1.1-2.7-1.1
		c-2.4,0-3.6,1.5-3.6,4.4c0,1.7,0.4,3.2,1.3,4.6s2.5,3.2,4.9,5.2c3,2.6,5.1,5,6.2,7.1c1.1,2.1,1.7,4.6,1.7,7.5
		c0,3.8-0.9,6.6-2.8,8.6c-1.9,2-4.5,3-8.1,3S246.5,76.6,244.7,74.6L244.7,74.6z"/>
	<path class="st0" d="M273.2,37.7h-7.5v-6.5h22.2v6.5h-7.5v39.2h-7.2C273.2,76.9,273.2,37.7,273.2,37.7z"/>
	<path class="st0" d="M293.4,74.5c-1.9-2-2.8-4.8-2.8-8.5V42c0-3.7,0.9-6.5,2.8-8.5c1.9-2,4.6-3,8.1-3s6.2,1,8.1,3
		c1.9,2,2.8,4.8,2.8,8.5v24c0,3.7-0.9,6.5-2.8,8.5c-1.9,2-4.6,3-8.1,3S295.3,76.5,293.4,74.5z M305.2,66.5v-25c0-3-1.2-4.5-3.7-4.5
		s-3.7,1.5-3.7,4.5v25c0,3,1.2,4.5,3.7,4.5S305.2,69.5,305.2,66.5z"/>
	<path class="st0" d="M317.3,31.1h10.6c3.7,0,6.4,0.9,8.1,2.6c1.7,1.7,2.5,4.4,2.5,7.9v2.8c0,4.8-1.6,7.8-4.7,9v0.1
		c1.7,0.5,3,1.6,3.7,3.2s1.1,3.8,1.1,6.5v8c0,1.3,0,2.4,0.1,3.2s0.3,1.6,0.6,2.4h-7.3c-0.3-0.7-0.4-1.4-0.5-2.1
		c-0.1-0.7-0.1-1.8-0.1-3.5v-8.4c0-2.1-0.3-3.5-1-4.4c-0.7-0.8-1.8-1.2-3.5-1.2h-2.5v19.6h-7.2L317.3,31.1L317.3,31.1z M327.1,50.7
		c1.4,0,2.5-0.4,3.2-1.1s1.1-2,1.1-3.7v-3.5c0-1.7-0.3-2.8-0.9-3.6s-1.5-1.1-2.8-1.1h-3.3v13.1H327.1L327.1,50.7z"/>
	<path class="st0" d="M343.6,31.1h19.6v6.5h-12.4v12.1h9.9v6.5h-9.9v14h12.4v6.5h-19.6V31.1z"/>
</g>
</svg>
